<svg width="40" height="40" xmlns="http://www.w3.org/2000/svg">

 <g>
  <title>background</title>
  <rect fill="none" id="canvas_background" height="42" width="42" y="-1" x="-1"/>
 </g>
 <g>
  <title>Layer 1</title>
  <g stroke="null" id="svg_1">
   <path stroke="null" id="svg_2" fill="#602F75" d="m24.337953,38.266369c-0.018853,0 -0.037246,0 -0.056099,-0.00037c-1.540199,-0.017924 -2.931872,-0.746708 -4.148811,-2.170092c-1.217168,1.423199 -2.608612,2.151983 -4.148811,2.170092c-2.893936,0.039728 -5.225501,-2.547419 -5.898462,-3.37728c-1.326608,-0.233935 -2.293859,-0.746708 -2.877842,-1.527232c-0.737796,-0.985448 -0.638473,-2.136646 -0.486959,-2.80205c-3.653804,-1.549036 -4.021898,-4.699218 -3.634721,-6.530787c-1.870816,-1.095024 -3.015791,-2.442832 -3.406416,-4.01164c-0.602606,-2.420658 0.800793,-4.592598 1.276486,-5.238784c-0.238881,-3.13466 0.535931,-5.497665 2.304895,-7.024712c1.388685,-1.199057 3.014412,-1.537025 3.837506,-1.632004c1.253725,-2.119646 3.384344,-2.528571 4.678074,-2.428973c3.765313,-2.809996 7.093558,-1.436873 8.35579,-0.712154c1.262232,-0.725089 4.590247,-2.097842 8.35556,0.712154c1.29373,-0.099968 3.424809,0.309142 4.678074,2.428973c0.823325,0.094978 2.448821,0.432947 3.837506,1.632004c1.768964,1.527232 2.543776,3.890053 2.304895,7.024712c0.475464,0.646186 1.879093,2.818126 1.276486,5.238784c-0.390395,1.568993 -1.53537,2.9168 -3.406416,4.01164c0.387176,1.83157 0.018853,4.981751 -3.634721,6.530787c0.151514,0.665404 0.250837,1.816417 -0.486959,2.80205c-0.584213,0.780524 -1.551464,1.293666 -2.878072,1.527232c-0.666983,0.824132 -2.968659,3.37728 -5.840983,3.377649zm-4.219854,-3.988357c0.286474,0 0.580305,0.125468 0.718024,0.32762c1.076001,1.577678 2.242818,2.385179 3.468263,2.399223c0.011036,0 0.022302,0 0.033338,0c2.042792,0 4.06995,-2.163994 4.681293,-3.00254c0.117716,-0.1615 0.318662,-0.27274 0.548576,-0.303414c1.032777,-0.137848 1.753559,-0.46824 2.141655,-0.983046c0.718943,-0.952741 0.184851,-2.294636 0.179793,-2.308125c-0.126683,-0.31099 0.062767,-0.650252 0.437068,-0.778676c4.449999,-1.525014 3.270996,-5.55772 3.218806,-5.728644c-0.079321,-0.258511 0.051731,-0.530697 0.327628,-0.677784c2.455489,-1.309373 3.546434,-3.019355 3.241797,-5.082088c-0.236582,-1.60133 -1.247287,-2.840854 -1.257633,-2.85305c-0.096104,-0.116413 -0.142087,-0.256109 -0.129902,-0.395066c0.254975,-2.858224 -0.366944,-4.964381 -1.848514,-6.260634c-1.434208,-1.254123 -3.176042,-1.286275 -3.249384,-1.287014c-0.317052,-0.003141 -0.605135,-0.159283 -0.723082,-0.395436c-1.200385,-2.399962 -3.466424,-1.977733 -3.489185,-1.972559c-0.265322,0.053218 -0.547887,-0.009054 -0.743084,-0.165011c-1.599746,-1.279438 -3.245476,-1.7717 -4.889596,-1.462003c-1.258323,0.236522 -2.076819,0.870143 -2.085096,0.876426c-0.146686,0.11512 -0.346022,0.181642 -0.550876,0.181642l-0.029889,0c-0.207613,0 -0.406489,-0.065968 -0.553635,-0.18349c-0.005518,-0.004435 -0.824474,-0.638056 -2.082797,-0.874578c-1.64412,-0.308772 -3.289849,0.182566 -4.889596,1.462003c-0.194968,0.155772 -0.476843,0.217305 -0.743084,0.165011c-0.227616,-0.041391 -2.326507,-0.352012 -3.489185,1.972559c-0.119326,0.23874 -0.407639,0.395436 -0.72791,0.395436c-0.068744,0.000554 -1.810578,0.032707 -3.244556,1.287014c-1.48157,1.295883 -2.10349,3.402225 -1.848514,6.260634c0.012645,0.140066 -0.033338,0.279392 -0.130592,0.396175c-0.008967,0.011272 -1.020132,1.250427 -1.256714,2.851757c-0.304407,2.063103 0.786308,3.772715 3.241797,5.082088c0.277507,0.147826 0.408558,0.420012 0.327169,0.679262c-0.051731,0.169631 -1.230963,4.202151 3.219036,5.72735c0.37637,0.128979 0.56628,0.46861 0.436378,0.780524c-0.004598,0.011272 -0.53846,1.353166 0.180023,2.305908c0.388096,0.514621 1.108879,0.845567 2.141655,0.983046c0.229225,0.030674 0.4304,0.141913 0.548117,0.302675c0.618471,0.843904 2.670689,3.015474 4.71739,3.002909c1.224756,-0.015152 2.390423,-0.822469 3.465964,-2.399223c0.138639,-0.201414 0.402351,-0.326881 0.689054,-0.326881zm0.029889,-30.500289l0.003909,0l-0.003909,0z"/>
   <path stroke="null" id="svg_3" fill="#FFFFFF" d="m28.197071,10.826087c0,0 0,-2.936942 4.407005,-4.111792"/>
   <path stroke="null" id="svg_4" fill="#602F75" d="m28.197531,11.454535c-0.002069,0 -0.003909,0 -0.005978,0c-0.43132,-0.002587 -0.779181,-0.281979 -0.779181,-0.628447c0,-0.138402 0.056099,-3.407215 4.944775,-4.710305c0.409708,-0.109392 0.855513,0.069294 0.991852,0.40024c0.136569,0.330577 -0.086218,0.687578 -0.497995,0.797154c-3.782327,1.008176 -3.867395,3.415345 -3.869004,3.51716c-0.005978,0.345175 -0.356138,0.624197 -0.784469,0.624197z"/>
   <path stroke="null" id="svg_5" fill="#FFFFFF" d="m28.931649,21.986429c0,0 2.247876,4.868664 7.344625,1.762276"/>
   <path stroke="null" id="svg_6" fill="#602F75" d="m33.075171,25.416556c-0.395913,0 -0.784699,-0.044533 -1.165668,-0.133783c-2.541477,-0.594817 -3.666909,-2.976485 -3.713582,-3.077377c-0.150594,-0.326696 0.056559,-0.68961 0.462588,-0.810828c0.406489,-0.120479 0.857352,0.045087 1.008406,0.37086c0.017703,0.037511 0.914601,1.896244 2.687013,2.307201c1.004497,0.233381 2.164877,-0.045087 3.447801,-0.827274c0.345792,-0.210653 0.837809,-0.155772 1.099452,0.121402c0.261643,0.277544 0.194278,0.673349 -0.151054,0.883633c-1.272348,0.776458 -2.504001,1.166166 -3.674956,1.166166z"/>
   <path stroke="null" id="svg_7" fill="#FFFFFF" d="m25.259221,29.035163c0,0 0.734577,-2.349516 -2.203273,-4.698848"/>
   <g stroke="null" id="svg_8">
    <path stroke="null" id="svg_9" fill="#602F75" d="m25.259911,29.665827c-0.063227,0 -0.127603,-0.006283 -0.191979,-0.019217c-0.418675,-0.084446 -0.67342,-0.424816 -0.571338,-0.761676c0.02713,-0.094239 0.554784,-2.063103 -1.99451,-4.102184c-0.307166,-0.245761 -0.308316,-0.645262 -0.002759,-0.892133c0.305787,-0.246685 0.802402,-0.247794 1.109568,-0.002217c3.217196,2.573104 2.445373,5.190001 2.411115,5.299947c-0.088977,0.286598 -0.408788,0.477479 -0.760098,0.477479z"/>
    <path stroke="null" id="svg_10" fill="#602F75" d="m32.502224,19.17939c-1.574686,0 -3.484817,-0.366055 -4.854189,-1.823439c-1.168886,-1.244144 -1.677917,-2.323647 -2.049919,-3.111931c-0.4304,-0.913013 -0.554554,-1.064905 -0.884482,-1.087079c-0.43201,-0.028457 -0.75343,-0.332979 -0.718024,-0.680186s0.420744,-0.607936 0.846086,-0.577077c1.372591,0.090544 1.786207,0.967894 2.223965,1.897167c0.357058,0.756871 0.801253,1.698895 1.834719,2.798909c1.991751,2.119461 5.74189,1.070633 5.90122,1.024992c0.406949,-0.116598 0.856662,0.052663 1.003808,0.37936c0.147145,0.327436 -0.062307,0.687762 -0.469256,0.806763c-0.099783,0.029381 -1.309364,0.372523 -2.833929,0.372523z"/>
    <path stroke="null" id="svg_11" fill="#602F75" d="m20.118099,35.539526c-0.433159,0 -0.784699,-0.282533 -0.784699,-0.630665l0,-31.131138c0,-0.348131 0.35154,-0.630665 0.784699,-0.630665c0.433159,0 0.784699,0.282533 0.784699,0.630665l0,31.131138c0.00023,0.347946 -0.35154,0.630665 -0.784699,0.630665z"/>
   </g>
   <path stroke="null" id="svg_12" fill="#FFFFFF" d="m25.078738,8.573767c0,0 0.075642,4.152999 -2.575964,6.842516"/>
   <path stroke="null" id="svg_13" fill="#602F75" d="m22.502314,16.046763c-0.170597,0 -0.342573,-0.044533 -0.486959,-0.136555c-0.339814,-0.216381 -0.396603,-0.61311 -0.127603,-0.886219c2.441004,-2.475908 2.406977,-6.402548 2.406057,-6.441906c-0.005518,-0.348131 0.340963,-0.634175 0.774123,-0.63898c0.428561,0.007576 0.789067,0.273109 0.795275,0.621241c0.003219,0.17887 0.047592,4.410402 -2.745871,7.24331c-0.154273,0.15725 -0.383498,0.239109 -0.615022,0.239109z"/>
   <path stroke="null" id="svg_14" fill="#FFFFFF" d="m23.055949,31.971735c0,0 1.469155,-3.524182 4.407005,-3.524182"/>
   <path stroke="null" id="svg_15" fill="#602F75" d="m23.055949,32.602769c-0.082769,0 -0.166688,-0.010717 -0.249457,-0.032891c-0.410858,-0.110685 -0.632495,-0.468055 -0.494776,-0.798448c0.067135,-0.1615 1.688034,-3.954727 5.150779,-3.954727c0.433159,0 0.784699,0.282533 0.784699,0.630665c0,0.348131 -0.35154,0.630665 -0.784699,0.630665c-2.308344,0 -3.649896,3.062779 -3.662541,3.094007c-0.109899,0.26387 -0.415916,0.430729 -0.744004,0.430729z"/>
   <g stroke="null" id="svg_16">
    <path stroke="null" id="svg_17" fill="#602F75" d="m25.993339,6.757904c-0.163699,0 -0.328318,-0.040652 -0.469256,-0.125468c-0.347171,-0.208805 -0.417985,-0.603871 -0.158641,-0.882709l1.88576,-2.026146c0.259804,-0.279392 0.751821,-0.33612 1.098302,-0.127316c0.347171,0.208805 0.417985,0.603871 0.158641,0.882709l-1.88576,2.026146c-0.154273,0.165381 -0.390395,0.252783 -0.629047,0.252783z"/>
    <path stroke="null" id="svg_18" fill="#602F75" d="m12.257085,18.975574c-0.433159,0 -0.784699,-0.282533 -0.784699,-0.630665l0,-6.285765c0,-0.348131 0.35154,-0.630665 0.784699,-0.630665c0.433159,0 0.784699,0.282533 0.784699,0.630665l0,6.285765c0,0.348501 -0.35108,0.630665 -0.784699,0.630665z"/>
    <path stroke="null" id="svg_19" fill="#602F75" d="m14.61532,18.975574l-5.501629,0c-0.433159,0 -0.784699,-0.282533 -0.784699,-0.630665c0,-0.348131 0.35154,-0.630665 0.784699,-0.630665l5.501629,0c0.433159,0 0.784699,0.282533 0.784699,0.630665c0,0.348131 -0.35154,0.630665 -0.784699,0.630665z"/>
    <path stroke="null" id="svg_20" fill="#602F75" d="m14.61532,22.746996c-0.433159,0 -0.784699,-0.282533 -0.784699,-0.630665l0,-3.771422c0,-0.348131 0.35154,-0.630665 0.784699,-0.630665c0.433159,0 0.784699,0.282533 0.784699,0.630665l0,3.771422c0,0.348501 -0.35154,0.630665 -0.784699,0.630665z"/>
    <path stroke="null" id="svg_21" fill="#602F75" d="m14.61532,29.661392c-0.433159,0 -0.784699,-0.282533 -0.784699,-0.630665l0,-3.142975c0,-0.348131 0.35154,-0.630665 0.784699,-0.630665c0.433159,0 0.784699,0.282533 0.784699,0.630665l0,3.142975c0,0.348501 -0.35154,0.630665 -0.784699,0.630665z"/>
   </g>
   <g stroke="null" id="svg_22">
    <ellipse stroke="null" id="svg_23" fill="#00E7FF" ry="1.885896" rx="2.358235" cy="10.173803" cx="12.257775"/>
    <path stroke="null" id="svg_24" fill="#00E7FF" d="m12.257085,12.689809c-1.733097,0 -3.142704,-1.129024 -3.142704,-2.516191s1.409837,-2.516191 3.142704,-2.516191s3.142704,1.129024 3.142704,2.516191s-1.409607,2.516191 -3.142704,2.516191zm0,-3.771422c-0.867468,0 -1.573076,0.562849 -1.573076,1.254862c0,0.691828 0.705608,1.254862 1.573076,1.254862c0.867468,0 1.573076,-0.562849 1.573076,-1.254862s-0.705608,-1.254862 -1.573076,-1.254862z"/>
    <ellipse stroke="null" id="svg_25" fill="#00E7FF" ry="1.885896" rx="2.358235" cy="18.344909" cx="6.756606"/>
    <path stroke="null" id="svg_26" fill="#00E7FF" d="m6.755457,20.86147c-1.733097,0 -3.142704,-1.129024 -3.142704,-2.516375s1.409837,-2.516191 3.142704,-2.516191s3.142704,1.129024 3.142704,2.516375s-1.410067,2.516191 -3.142704,2.516191zm0,-3.771422c-0.867468,0 -1.573076,0.562849 -1.573076,1.254862c0,0.691828 0.705608,1.254862 1.573076,1.254862c0.867468,0 1.573076,-0.562849 1.573076,-1.254862c0,-0.691828 -0.705608,-1.254862 -1.573076,-1.254862z"/>
    <ellipse stroke="null" id="svg_27" fill="#00E7FF" ry="1.885896" rx="2.358235" cy="24.002597" cx="14.61601"/>
    <path stroke="null" id="svg_28" fill="#00E7FF" d="m14.61532,26.518418c-1.733097,0 -3.142704,-1.129024 -3.142704,-2.516375c0,-1.387536 1.409837,-2.51656 3.142704,-2.51656c1.732867,0 3.142704,1.129024 3.142704,2.51656c0,1.387721 -1.409837,2.516375 -3.142704,2.516375zm0,-3.771422c-0.867468,0 -1.573076,0.563219 -1.573076,1.255231c0,0.691828 0.705608,1.254862 1.573076,1.254862s1.573076,-0.562849 1.573076,-1.254862c0,-0.692012 -0.705838,-1.255231 -1.573076,-1.255231z"/>
   </g>
   <g stroke="null" id="svg_29">
    <ellipse stroke="null" id="svg_30" fill="#EA3457" ry="1.257079" rx="1.573536" cy="11.432176" cx="33.478212"/>
    <ellipse stroke="null" id="svg_31" fill="#EA3457" ry="1.257079" rx="1.573536" cy="19.603282" cx="24.833879"/>
   </g>
   <g stroke="null" id="svg_32">
    <ellipse stroke="null" id="svg_33" fill="#FFE600" ry="1.257079" rx="1.573536" cy="21.488993" cx="34.262911"/>
    <ellipse stroke="null" id="svg_34" fill="#FFE600" ry="1.257079" rx="1.573536" cy="34.686937" cx="24.833879"/>
   </g>
   <ellipse stroke="null" id="svg_35" fill="#EA3457" ry="1.257079" rx="1.573536" cy="31.545995" cx="28.761742"/>
   <g stroke="null" id="svg_36">
    <ellipse stroke="null" id="svg_37" fill="#00E7FF" ry="1.885896" rx="2.358235" cy="30.91533" cx="14.61601"/>
    <path stroke="null" id="svg_38" fill="#00E7FF" d="m14.61532,33.433184c-1.733097,0 -3.142704,-1.129024 -3.142704,-2.51656s1.409837,-2.516375 3.142704,-2.516375c1.732867,0 3.142704,1.129024 3.142704,2.516375c0,1.387536 -1.409837,2.51656 -3.142704,2.51656zm0,-3.771791c-0.867468,0 -1.573076,0.562849 -1.573076,1.254862s0.705608,1.255231 1.573076,1.255231s1.573076,-0.563219 1.573076,-1.255231s-0.705838,-1.254862 -1.573076,-1.254862z"/>
   </g>
  </g>
 </g>
</svg>