<?xml version="1.0" encoding="iso-8859-1"?>
<!-- Generator: Adobe Illustrator 19.0.0, SVG Export Plug-In . SVG Version: 6.00 Build 0)  -->
<svg version="1.1" id="Capa_1" xmlns="http://www.w3.org/2000/svg" xmlns:xlink="http://www.w3.org/1999/xlink" x="0px" y="0px"
	 viewBox="0 0 469.475 469.475" style="enable-background:new 0 0 469.475 469.475;" xml:space="preserve">
<path style="fill:#44C4A1;" d="M335.685,222.557c-8.741-4.371-18.732-3.746-27.473,1.873
	c-21.854,13.737-46.829,21.229-73.678,21.229c-26.849,0-51.824-7.493-73.678-21.229c-8.117-4.995-18.732-6.244-27.473-1.873
	C68.446,255.65,19.743,319.962,1.636,397.387c-8.117,33.717,14.985,66.81,46.829,66.81h371.512c31.22,0,54.322-33.093,46.829-66.81
	C449.324,319.962,400.621,255.65,335.685,222.557z"/>
<path style="fill:#3EA69B;" d="M468.056,398.011c-8.117-33.093-21.229-64.312-39.337-91.161
	c11.863,21.229,20.605,44.956,26.224,69.932c8.117,33.717-14.985,66.81-46.829,66.81H36.602c-13.112,0-24.351-5.62-33.093-14.361
	c6.868,19.98,24.351,34.966,45.58,34.966h371.512C452.446,464.821,475.548,431.728,468.056,398.011z"/>
<path style="fill:#27A2DB;" d="M335.06,105.172c0,54.946-44.956,99.902-99.902,99.902s-99.902-44.956-99.902-99.902
	S180.212,5.27,235.158,5.27S335.06,50.226,335.06,105.172z"/>
<g>
</g>
<g>
</g>
<g>
</g>
<g>
</g>
<g>
</g>
<g>
</g>
<g>
</g>
<g>
</g>
<g>
</g>
<g>
</g>
<g>
</g>
<g>
</g>
<g>
</g>
<g>
</g>
<g>
</g>
</svg>
