<svg width="80" height="80" xmlns="http://www.w3.org/2000/svg">

 <g>
  <title>background</title>
  <rect fill="none" id="canvas_background" height="82" width="82" y="-1" x="-1"/>
 </g>
 <g>
  <title>Layer 1</title>
  <g id="svg_1" transform="matrix(0.228231,0,0,0.228231,7.20664,8.34779) ">
   <g id="XMLID_449_">
    <path fill="#A50A0A" class="active-path" d="m2.499,211.77l42.076,0c1.123,0 2.109,-0.749 2.41,-1.832l12.271,-44.237l47.637,0l13.313,44.289c0.318,1.057 1.291,1.78 2.395,1.78l43.672,0c0.008,0 0.016,0 0.02,0c1.381,0 2.5,-1.119 2.5,-2.5c0,-0.369 -0.078,-0.719 -0.223,-1.034l-55.564,-179.19c-0.324,-1.046 -1.293,-1.76 -2.389,-1.76l-53.26,0c-1.1,0 -2.07,0.718 -2.391,1.769l-54.857,179.484c-0.23,0.758 -0.09,1.581 0.381,2.218c0.472,0.637 1.216,1.013 2.009,1.013zm97.055,-81.428l-33.043,0l9.764,-34.902c1.773,-6.289 3.449,-13.731 5.07,-20.928c0.371,-1.653 0.736,-3.275 1.098,-4.861c2.145,8.622 4.504,17.937 6.869,25.815l10.242,34.876z" id="XMLID_450_"/>
    <path fill="#A50A0A" class="active-path" d="m187.288,76.551c-1.381,0 -2.5,1.119 -2.5,2.5l0,130.219c0,1.381 1.119,2.5 2.5,2.5l40.477,0c1.381,0 2.5,-1.119 2.5,-2.5l0,-130.219c0,-1.381 -1.119,-2.5 -2.5,-2.5l-40.477,0z" id="XMLID_453_"/>
    <path fill="#A50A0A" class="active-path" d="m207.261,65.571c14.102,0 24.336,-9.563 24.336,-22.795c-0.307,-13.512 -10.205,-22.949 -24.07,-22.949c-7.078,0 -13.363,2.442 -17.697,6.878c-4.067,4.16 -6.234,9.886 -6.108,16.127c-0.129,6.043 2.043,11.666 6.119,15.84c4.344,4.449 10.531,6.899 17.42,6.899z" id="XMLID_454_"/>
   </g>
  </g>
 </g>
</svg>