<svg width="25" height="25" xmlns="http://www.w3.org/2000/svg">

 <g>
  <title>background</title>
  <rect fill="none" id="canvas_background" height="27" width="27" y="-1" x="-1"/>
 </g>
 <g>
  <title>Layer 1</title>
  <g stroke="null" id="svg_1">
   <path stroke="null" id="svg_2" fill="#56ffaa" d="m21.613001,20.046774l0,0c0,0.850243 -0.71599,1.566233 -1.566233,1.566233l0,0c-0.447484,0 -0.850243,-0.179017 -1.163512,-0.492248l-5.011968,-5.459492c-0.179017,-0.179017 -0.179017,-0.447484 0,-0.626501l1.163512,-1.163513c0.179017,-0.179017 0.447484,-0.179017 0.626501,0l5.459452,5.056772c0.313231,0.268506 0.492248,0.71599 0.492248,1.118749z"/>
   <rect stroke="null" id="svg_3" fill="#B0C4D8" height="48.872" width="32.581" transform="matrix(-0.027192848612824658,0.027192856870808597,-0.027192848612824658,-0.027192856870808597,29.339449844230362,12.569480147316265) " y="239.337978" x="292.064995"/>
   <path stroke="null" id="svg_4" fill="#99B4CD" d="m14.229283,14.229287l0.223742,0.223742l0.447484,-0.447484l-1.342491,-1.342491l-0.895007,0.895007l0.671265,0.671226l0,0c0.268506,-0.268506 0.626501,-0.268506 0.895007,0z"/>
   <path stroke="null" id="svg_5" fill="#C4D7E5" d="m8.63554,1.923086c-3.714202,0 -6.712453,2.998252 -6.712453,6.712455s2.998251,6.712455 6.712453,6.712455s6.712453,-2.998252 6.712453,-6.712455s-2.998212,-6.712455 -6.712453,-6.712455zm0,12.082458c-2.953487,0 -5.369963,-2.416476 -5.369963,-5.369964s2.416476,-5.370003 5.369963,-5.370003s5.369963,2.416476 5.369963,5.369964s-2.416476,5.370003 -5.369963,5.370003z"/>
   <circle stroke="null" id="svg_6" fill="#70B7E5" r="4.370999" cy="8.67252" cx="8.63554"/>
   <path stroke="null" id="svg_7" fill="#92C5EB" d="m5.995322,9.262043c0.223742,-1.700486 1.566233,-3.042977 3.266718,-3.266719l0.044764,0c0.760754,-0.089489 0.805479,-1.163513 0.089489,-1.297727c-0.447484,-0.089489 -0.895007,-0.089489 -1.342491,-0.044764c-1.745249,0.268506 -3.132504,1.655761 -3.356246,3.356247c-0.089489,0.447484 -0.044764,0.939732 0.044764,1.342491c0.134253,0.760754 1.208238,0.671265 1.297727,-0.089489c-0.044725,0.044725 -0.044725,-0.000038 -0.044725,-0.000038z"/>
   <path stroke="null" id="svg_8" fill="#4C9CD6" d="m3.713061,9.083064c0,-2.953488 2.416476,-5.369964 5.369963,-5.369964c1.387254,0 2.595492,0.537012 3.579988,1.342491c-0.984496,-1.118749 -2.416476,-1.789975 -4.027472,-1.789975c-2.953487,0 -5.369963,2.416476 -5.369963,5.369964c0,1.610997 0.71599,3.042977 1.789975,4.027473c-0.805479,-0.984496 -1.342491,-2.192734 -1.342491,-3.579989z"/>
   <path stroke="null" id="svg_9" fill="#B0C9DB" d="m8.63554,15.348036l0,0c3.714241,0 6.712453,-2.998252 6.712453,-6.712455l0,0c-0.223742,0 -0.447484,0.179017 -0.447484,0.447484c-0.089489,1.521508 -0.760754,2.908724 -1.789975,3.937984c-1.02926,1.073985 -2.461239,1.74525 -4.027472,1.879503c-0.268506,0 -0.447523,0.223742 -0.447523,0.447484z"/>
   <path stroke="null" id="svg_10" fill="#E2E7F0" d="m8.63554,1.923086l0,0c-3.714202,0 -6.712453,2.998252 -6.712453,6.712455l0,0c0.223742,0 0.447484,-0.179017 0.447484,-0.447484c0.089528,-1.476744 0.716028,-2.819235 1.65576,-3.803731c1.073985,-1.118749 2.550728,-1.879503 4.161725,-2.013756c0.268506,0 0.447484,-0.223742 0.447484,-0.447484z"/>
   <path stroke="null" id="svg_11" fill="#56ffaa" d="m21.075989,18.883261l-0.268506,-0.223742c0.223742,0.268506 0.357995,0.626501 0.357995,0.984496l0,0c0,0.581737 -0.71599,0.805479 -1.118749,0.402759l-4.698698,-4.698738c-0.268506,-0.268506 -0.671265,-0.268506 -0.939732,0l-0.447484,0.447484l4.877715,5.235711c0.268506,0.268506 0.626501,0.492248 0.984496,0.537012c0.492248,0.044764 0.984496,-0.134253 1.297727,-0.447484c0.313231,-0.313231 0.492248,-0.805479 0.447484,-1.297727c0,-0.358034 -0.223742,-0.671265 -0.492248,-0.939771z"/>
   <path stroke="null" id="svg_12" fill="#C97629" d="m16.46678,15.79552c-0.044764,0 -0.134253,0 -0.179017,-0.044764l-1.118749,-1.118749c-0.089489,-0.089489 -0.089489,-0.223742 0,-0.313231c0.089489,-0.089489 0.223742,-0.089489 0.313231,0l1.118749,1.118749c0.089489,0.089489 0.089489,0.223742 0,0.313231c0.000038,0.044764 -0.089489,0.044764 -0.134214,0.044764z"/>
  </g>
 </g>
</svg>